<svg width="560" height="420" viewBox="0 0 560 420" fill="none" xmlns="http://www.w3.org/2000/svg">
  <rect width="560" height="420" rx="24" fill="#FFFFFF"/>
  <rect x="24" y="24" width="512" height="372" rx="22" fill="#F8FAFD" stroke="#DADCE0"/>
  <g>
    <rect x="58" y="62" width="178" height="132" rx="18" fill="#FFFFFF" stroke="#DADCE0"/>
    <rect x="78" y="86" width="138" height="70" rx="14" fill="#E6F4EA"/>
    <circle cx="111" cy="111" r="14" fill="#34A853"/>
    <path d="M83 151L118 123L142 144L162 126L211 151H83Z" fill="#188038"/>
    <text x="78" y="178" fill="#202124" font-family="Arial, sans-serif" font-size="13" font-weight="700">foto query</text>
  </g>
  <g>
    <rect x="272" y="62" width="224" height="132" rx="18" fill="#FFFFFF" stroke="#DADCE0"/>
    <rect x="294" y="88" width="54" height="72" rx="10" fill="#FCE8E6"/>
    <path d="M307 108H334M307 123H334M307 138H326" stroke="#EA4335" stroke-width="5" stroke-linecap="round"/>
    <rect x="366" y="88" width="106" height="72" rx="12" fill="#FFFFFF" stroke="#E8EAED"/>
    <circle cx="395" cy="116" r="10" fill="#34A853"/>
    <path d="M376 150L403 128L421 144L437 130L464 150H376Z" fill="#188038"/>
    <text x="294" y="178" fill="#202124" font-family="Arial, sans-serif" font-size="13" font-weight="700">PDF con immagine</text>
  </g>
  <g>
    <rect x="58" y="226" width="156" height="110" rx="18" fill="#FFFFFF" stroke="#DADCE0"/>
    <rect x="80" y="250" width="42" height="50" rx="10" fill="#E8F0FE"/>
    <path d="M96 262L112 275L96 288V262Z" fill="#1A73E8"/>
    <text x="138" y="268" fill="#202124" font-family="Arial, sans-serif" font-size="13" font-weight="700">video</text>
    <text x="138" y="290" fill="#5F6368" font-family="Arial, sans-serif" font-size="11">keyframe</text>
  </g>
  <g>
    <rect x="246" y="226" width="124" height="110" rx="18" fill="#FFFFFF" stroke="#DADCE0"/>
    <rect x="268" y="250" width="38" height="50" rx="10" fill="#FEF7E0"/>
    <path d="M287 261V291M287 291C279 291 275 287 276 282C277 276 282 275 287 278" stroke="#F9AB00" stroke-width="4" stroke-linecap="round"/>
    <text x="320" y="268" fill="#202124" font-family="Arial, sans-serif" font-size="13" font-weight="700">audio</text>
    <text x="320" y="290" fill="#5F6368" font-family="Arial, sans-serif" font-size="11">sidecar</text>
  </g>
  <g>
    <rect x="402" y="226" width="94" height="110" rx="18" fill="#FFFFFF" stroke="#DADCE0"/>
    <rect x="426" y="251" width="46" height="46" rx="14" fill="#E8F0FE"/>
    <path d="M438 274H460M449 263V285" stroke="#1A73E8" stroke-width="5" stroke-linecap="round"/>
    <text x="424" y="318" fill="#202124" font-family="Arial, sans-serif" font-size="13" font-weight="700">query</text>
  </g>
  <path d="M236 128H272" stroke="#1A73E8" stroke-width="4" stroke-linecap="round" stroke-dasharray="6 9">
    <animate attributeName="stroke-dashoffset" from="0" to="-60" dur="1.8s" repeatCount="indefinite"/>
  </path>
  <path d="M147 194V226" stroke="#34A853" stroke-width="4" stroke-linecap="round" stroke-dasharray="6 9">
    <animate attributeName="stroke-dashoffset" from="0" to="-60" dur="2.2s" repeatCount="indefinite"/>
  </path>
  <path d="M384 194L449 226" stroke="#EA4335" stroke-width="4" stroke-linecap="round" stroke-dasharray="6 9">
    <animate attributeName="stroke-dashoffset" from="0" to="-60" dur="2s" repeatCount="indefinite"/>
  </path>
  <circle cx="286" cy="128" r="8" fill="#1A73E8">
    <animateTransform attributeName="transform" type="translate" values="0 0;18 0;0 0" dur="2.2s" repeatCount="indefinite"/>
  </circle>
</svg>
