<svg width="900" height="620" viewBox="0 0 900 620" fill="none" xmlns="http://www.w3.org/2000/svg">
  <rect width="900" height="620" fill="#FFFFFF"/>
  <g opacity=".7">
    <circle cx="114" cy="90" r="5" fill="#4285F4"/>
    <circle cx="154" cy="132" r="4" fill="#34A853"/>
    <circle cx="766" cy="108" r="5" fill="#EA4335"/>
    <circle cx="820" cy="162" r="4" fill="#FBBC04"/>
    <circle cx="104" cy="510" r="4" fill="#FBBC04"/>
    <circle cx="790" cy="486" r="5" fill="#34A853"/>
  </g>
  <g stroke="#EDF0F3" stroke-width="2">
    <path d="M40 210H284"/>
    <path d="M620 228H860"/>
    <path d="M56 390H254"/>
    <path d="M650 398H852"/>
    <path d="M302 76C356 36 454 40 508 82"/>
    <path d="M332 552C398 598 510 594 572 540"/>
  </g>
  <g opacity=".9">
    <rect x="318" y="162" width="84" height="22" rx="11" fill="#E8F0FE"/>
    <rect x="428" y="162" width="110" height="22" rx="11" fill="#E6F4EA"/>
    <rect x="566" y="162" width="70" height="22" rx="11" fill="#FEF7E0"/>
    <rect x="262" y="434" width="112" height="22" rx="11" fill="#FCE8E6"/>
    <rect x="400" y="434" width="72" height="22" rx="11" fill="#E8F0FE"/>
    <rect x="498" y="434" width="126" height="22" rx="11" fill="#E6F4EA"/>
  </g>
</svg>
