<svg width="720" height="520" viewBox="0 0 720 520" fill="none" xmlns="http://www.w3.org/2000/svg">
  <rect width="720" height="520" rx="28" fill="#F8FAFD"/>
  <rect x="44" y="38" width="632" height="444" rx="24" fill="#FFFFFF" stroke="#DADCE0"/>
  <g opacity=".58">
    <path d="M98 112H622" stroke="#EDF0F3" stroke-width="2"/>
    <path d="M98 174H622" stroke="#EDF0F3" stroke-width="2"/>
    <path d="M98 236H622" stroke="#EDF0F3" stroke-width="2"/>
    <path d="M98 298H622" stroke="#EDF0F3" stroke-width="2"/>
    <path d="M98 360H622" stroke="#EDF0F3" stroke-width="2"/>
  </g>
  <g>
    <rect x="96" y="78" width="334" height="58" rx="29" fill="#FFFFFF" stroke="#DADCE0"/>
    <circle cx="126" cy="107" r="10" stroke="#5F6368" stroke-width="4"/>
    <path d="M133 115L143 125" stroke="#5F6368" stroke-width="4" stroke-linecap="round"/>
    <text x="166" y="114" fill="#202124" font-family="Arial, sans-serif" font-size="22" font-weight="700">elefante</text>
    <circle cx="392" cy="107" r="13" fill="#E8F0FE"/>
    <path d="M384 108H400M392 100V116" stroke="#1A73E8" stroke-width="3" stroke-linecap="round"/>
  </g>
  <g>
    <rect x="100" y="172" width="164" height="92" rx="16" fill="#FFFFFF" stroke="#DADCE0"/>
    <rect x="118" y="193" width="42" height="52" rx="8" fill="#FCE8E6"/>
    <path d="M130 210H149M130 222H149M130 234H143" stroke="#EA4335" stroke-width="4" stroke-linecap="round"/>
    <text x="174" y="213" fill="#202124" font-family="Arial, sans-serif" font-size="14" font-weight="700">PDF reale</text>
    <text x="174" y="236" fill="#5F6368" font-family="Arial, sans-serif" font-size="12">pagina 12</text>
  </g>
  <g>
    <rect x="288" y="174" width="164" height="92" rx="16" fill="#FFFFFF" stroke="#DADCE0"/>
    <rect x="306" y="194" width="52" height="52" rx="12" fill="#E6F4EA"/>
    <circle cx="326" cy="214" r="8" fill="#34A853"/>
    <path d="M312 239L329 225L341 236L351 226L358 239H312Z" fill="#188038"/>
    <text x="374" y="213" fill="#202124" font-family="Arial, sans-serif" font-size="14" font-weight="700">Immagine</text>
    <text x="374" y="236" fill="#5F6368" font-family="Arial, sans-serif" font-size="12">match locale</text>
  </g>
  <g>
    <rect x="476" y="174" width="144" height="92" rx="16" fill="#FFFFFF" stroke="#DADCE0"/>
    <rect x="494" y="197" width="48" height="45" rx="10" fill="#FEF7E0"/>
    <path d="M513 209V231M513 231C507 231 503 227 504 222C505 218 509 217 513 219" stroke="#F9AB00" stroke-width="4" stroke-linecap="round"/>
    <text x="554" y="213" fill="#202124" font-family="Arial, sans-serif" font-size="14" font-weight="700">Audio</text>
    <text x="554" y="236" fill="#5F6368" font-family="Arial, sans-serif" font-size="12">testo</text>
  </g>
  <g>
    <rect x="148" y="326" width="188" height="94" rx="18" fill="#FFFFFF" stroke="#DADCE0"/>
    <rect x="168" y="348" width="58" height="50" rx="10" fill="#E8F0FE"/>
    <path d="M190 360L210 373L190 386V360Z" fill="#1A73E8"/>
    <text x="244" y="366" fill="#202124" font-family="Arial, sans-serif" font-size="14" font-weight="700">Video</text>
    <text x="244" y="389" fill="#5F6368" font-family="Arial, sans-serif" font-size="12">keyframe 2</text>
  </g>
  <g>
    <rect x="376" y="326" width="194" height="94" rx="18" fill="#FFFFFF" stroke="#DADCE0"/>
    <rect x="396" y="348" width="58" height="50" rx="10" fill="#E6F4EA"/>
    <path d="M410 369H440M410 383H430M410 355H434" stroke="#188038" stroke-width="5" stroke-linecap="round"/>
    <text x="472" y="366" fill="#202124" font-family="Arial, sans-serif" font-size="14" font-weight="700">Word</text>
    <text x="472" y="389" fill="#5F6368" font-family="Arial, sans-serif" font-size="12">contenuto</text>
  </g>
  <g>
    <path d="M424 136C424 136 465 149 492 174" stroke="#1A73E8" stroke-width="3" stroke-linecap="round" stroke-dasharray="8 10">
      <animate attributeName="stroke-dashoffset" from="0" to="-72" dur="2.4s" repeatCount="indefinite"/>
    </path>
    <path d="M356 136C356 136 343 154 337 174" stroke="#34A853" stroke-width="3" stroke-linecap="round" stroke-dasharray="8 10">
      <animate attributeName="stroke-dashoffset" from="0" to="-72" dur="2s" repeatCount="indefinite"/>
    </path>
    <path d="M198 266C198 266 213 300 238 326" stroke="#F9AB00" stroke-width="3" stroke-linecap="round" stroke-dasharray="8 10">
      <animate attributeName="stroke-dashoffset" from="0" to="-72" dur="2.8s" repeatCount="indefinite"/>
    </path>
  </g>
  <g>
    <circle cx="602" cy="96" r="9" fill="#4285F4">
      <animate attributeName="r" values="7;11;7" dur="2.2s" repeatCount="indefinite"/>
    </circle>
    <circle cx="630" cy="124" r="7" fill="#34A853">
      <animate attributeName="r" values="5;9;5" dur="2.6s" repeatCount="indefinite"/>
    </circle>
    <circle cx="580" cy="134" r="6" fill="#FBBC04">
      <animate attributeName="r" values="4;8;4" dur="2.4s" repeatCount="indefinite"/>
    </circle>
  </g>
</svg>
